HIERARCHY
ROOT Hips
{
	OFFSET 0.00000 0.00000 0.00000
	CHANNELS 6 Xposition Yposition Zposition Zrotation Yrotation Xrotation 
	JOINT LHipJoint
	{
		OFFSET 0 0 0
		CHANNELS 3 Zrotation Yrotation Xrotation
		JOINT LeftUpLeg
		{
			OFFSET 1.28858 -1.83292 1.03970
			CHANNELS 3 Zrotation Yrotation Xrotation
			JOINT LeftLeg
			{
				OFFSET 2.47846 -6.80952 0.00000
				CHANNELS 3 Zrotation Yrotation Xrotation
				JOINT LeftFoot
				{
					OFFSET 2.75274 -7.56311 0.00000
					CHANNELS 3 Zrotation Yrotation Xrotation
					JOINT LeftToeBase
					{
						OFFSET 0.12848 -0.35301 1.68223
						CHANNELS 3 Zrotation Yrotation Xrotation
						End Site
						{
							OFFSET 0.00000 -0.00000 0.87311
						}
					}
				}
			}
		}
	}
	JOINT RHipJoint
	{
		OFFSET 0 0 0
		CHANNELS 3 Zrotation Yrotation Xrotation
		JOINT RightUpLeg
		{
			OFFSET -1.31183 -1.83292 1.03970
			CHANNELS 3 Zrotation Yrotation Xrotation
			JOINT RightLeg
			{
				OFFSET -2.44740 -6.72417 0.00000
				CHANNELS 3 Zrotation Yrotation Xrotation
				JOINT RightFoot
				{
					OFFSET -2.67343 -7.34519 0.00000
					CHANNELS 3 Zrotation Yrotation Xrotation
					JOINT RightToeBase
					{
						OFFSET -0.16914 -0.46471 1.77626
						CHANNELS 3 Zrotation Yrotation Xrotation
						End Site
						{
							OFFSET -0.00000 -0.00000 0.92777
						}
					}
				}
			}
		}
	}
	JOINT LowerBack
	{
		OFFSET 0 0 0
		CHANNELS 3 Zrotation Yrotation Xrotation
		JOINT Spine
		{
			OFFSET 0.01249 2.14252 0.03842
			CHANNELS 3 Zrotation Yrotation Xrotation
			JOINT Spine1
			{
				OFFSET -0.02957 2.14199 -0.03751
				CHANNELS 3 Zrotation Yrotation Xrotation
				JOINT Neck
				{
					OFFSET 0 0 0
					CHANNELS 3 Zrotation Yrotation Xrotation
					JOINT Neck1
					{
						OFFSET -0.01678 1.65709 -0.05476
						CHANNELS 3 Zrotation Yrotation Xrotation
						JOINT Head
						{
							OFFSET 0.07912 1.58331 -0.11843
							CHANNELS 3 Zrotation Yrotation Xrotation
							End Site
							{
								OFFSET 0.03298 1.73940 -0.04271
							}
						}
					}
				}
				JOINT LeftShoulder
				{
					OFFSET 0 0 0
					CHANNELS 3 Zrotation Yrotation Xrotation
					JOINT LeftArm
					{
						OFFSET 3.39556 1.16496 0.08673
						CHANNELS 3 Zrotation Yrotation Xrotation
						JOINT LeftForeArm
						{
							OFFSET 5.23910 -0.00000 -0.00000
							CHANNELS 3 Zrotation Yrotation Xrotation
							JOINT LeftHand
							{
								OFFSET 3.31467 -0.00000 0.00000
								CHANNELS 3 Zrotation Yrotation Xrotation
								JOINT LeftFingerBase
								{
									OFFSET 0 0 0
									CHANNELS 3 Zrotation Yrotation Xrotation
									JOINT LeftHandIndex1
									{
										OFFSET 0.96590 -0.00000 0.00000
										CHANNELS 3 Zrotation Yrotation Xrotation
										End Site
										{
											OFFSET 0.77873 -0.00000 0.00000
										}
									}
								}
								JOINT LThumb
								{
									OFFSET 0 0 0
									CHANNELS 3 Zrotation Yrotation Xrotation
									End Site
									{
										OFFSET 0.79062 -0.00000 0.79062
									}
								}
							}
						}
					}
				}
				JOINT RightShoulder
				{
					OFFSET 0 0 0
					CHANNELS 3 Zrotation Yrotation Xrotation
					JOINT RightArm
					{
						OFFSET -3.27193 1.31331 0.33940
						CHANNELS 3 Zrotation Yrotation Xrotation
						JOINT RightForeArm
						{
							OFFSET -5.30252 -0.00000 0.00000
							CHANNELS 3 Zrotation Yrotation Xrotation
							JOINT RightHand
							{
								OFFSET -3.67875 -0.00000 0.00000
								CHANNELS 3 Zrotation Yrotation Xrotation
								JOINT RightFingerBase
								{
									OFFSET 0 0 0
									CHANNELS 3 Zrotation Yrotation Xrotation
									JOINT RightHandIndex1
									{
										OFFSET -0.59481 -0.00000 0.00000
										CHANNELS 3 Zrotation Yrotation Xrotation
										End Site
										{
											OFFSET -0.47955 -0.00000 0.00000
										}
									}
								}
								JOINT RThumb
								{
									OFFSET 0 0 0
									CHANNELS 3 Zrotation Yrotation Xrotation
									End Site
									{
										OFFSET -0.48687 -0.00000 0.48687
									}
								}
							}
						}
					}
				}
			}
		}
	}
}
MOTION
Frames: 15
Frame Time: .0083333
9.4135 21.9455 7.1970 -159.3840 6.5303 158.0680 0.0000 0.0000 0.0000 2.4131 15.9363 -2.7807 3.5897 11.5934 34.3085 -1.3658 21.8786 0.9586 4.2785 12.5221 37.6048 0.0000 0.0000 0.0000 -34.1248 -18.3825 -59.4956 -13.7473 -19.0356 71.4312 -2.2137 -9.0983 -32.5397 -0.0661 1.6585 -4.5628 2.9144 -11.5778 5.1916 5.6826 -14.6282 5.7692 4.5297 -6.9142 3.9830 -2.0027 -10.4760 0.1884 -0.5796 -13.8309 7.0083 -0.1315 -6.8986 2.2785 -0.0000 0.0000 0.0000 27.5356 -70.8571 -51.0341 16.8808 -26.7003 -4.0336 -0.0000 0.0000 -10.0587 38.7532 -22.5611 -17.1169 -7.1250 0.0000 -0.0000 5.9668 2.0659 -5.7796 -0.0000 0.0000 0.0000 -28.6817 16.8009 -43.6878 -30.4254 41.2552 -11.6891 0.0000 -0.0000 -17.4193 -19.3091 -30.8369 10.1818 7.1250 -0.0000 -0.0000 14.5947 -61.7095 -6.0051
9.3436 22.1446 7.3947 -159.5760 10.0709 157.7670 0.0000 0.0000 0.0000 3.5403 18.1431 -5.6581 4.4273 12.7083 38.2862 -1.3479 20.7828 -1.8582 5.3189 13.7342 42.1831 0.0000 0.0000 0.0000 -33.0452 -18.4532 -60.0038 -13.5556 -18.9737 70.8426 -1.9308 -11.2535 -32.3165 -0.3517 3.8104 -10.5437 3.2830 -11.8666 6.0183 6.1199 -14.8475 6.2067 4.9232 -6.9659 4.0500 -3.1967 -10.1784 0.4873 -0.6464 -13.3517 8.4624 0.0012 -6.6743 2.7948 0.0000 -0.0000 0.0000 27.0249 -69.8299 -52.5521 15.3600 -24.6452 -3.3746 -0.0000 0.0000 -9.2318 40.2581 -22.9521 -18.2743 -7.1250 0.0000 -0.0000 6.7801 1.1306 -6.6924 0.0000 -0.0000 0.0000 -29.0839 20.3388 -45.7286 -30.4506 41.2765 -11.7058 0.0000 -0.0000 -17.6712 -20.6964 -30.2149 10.7649 7.1250 -0.0000 -0.0000 12.6009 -61.4458 -5.0904
9.2692 22.3365 7.6004 -159.5780 13.7709 157.4570 0.0000 0.0000 0.0000 4.9326 19.3648 -7.9409 4.9584 13.3368 40.6425 -1.2362 19.7399 -2.6062 3.4511 11.3918 33.6128 0.0000 0.0000 0.0000 -31.9566 -18.0113 -59.7502 -13.3806 -18.9153 70.3035 -2.1078 -9.8585 -32.4053 -0.1405 2.4157 -6.6560 3.7049 -12.2077 7.1173 6.6606 -15.0717 6.6341 5.4641 -7.0108 3.9840 -4.3097 -9.7826 0.6307 -1.4765 -12.6530 9.9858 -0.1103 -6.3704 3.3028 0.0000 0.0000 0.0000 25.1014 -68.5059 -52.7215 14.0226 -22.7670 -2.8368 -0.0000 0.0000 -7.7924 42.2097 -23.6626 -20.0038 -7.1250 0.0000 -0.0000 7.7670 -0.3812 -7.8912 0.0000 0.0000 0.0000 -29.7268 24.2219 -47.6084 -30.3211 41.1670 -11.6204 0.0000 -0.0000 -18.0148 -22.1321 -30.0251 11.5032 7.1250 -0.0000 -0.0000 10.8481 -61.6166 -4.4161
9.1903 22.5190 7.8127 -159.9630 17.2393 157.2620 0.0000 0.0000 0.0000 5.6340 19.9171 -10.2444 5.3819 13.8014 42.4475 -1.1121 18.3023 -7.9325 4.4355 12.7184 38.3235 0.0000 0.0000 0.0000 -31.2380 -17.6129 -59.3567 -13.1631 -18.8402 69.6312 -2.2537 -8.2111 -32.2329 -0.0768 1.7876 -4.9191 3.7626 -12.2120 8.0407 6.9069 -14.9318 7.0730 5.8367 -6.9126 4.0076 -4.4265 -9.6979 1.0826 -2.6094 -12.3695 11.0797 -0.4500 -6.2533 3.5218 0.0000 -0.0000 0.0000 24.2140 -67.6307 -53.4800 13.0207 -21.3175 -2.4608 -0.0000 0.0000 -6.2015 43.2143 -23.8729 -20.8187 -7.1250 0.0000 -0.0000 8.3004 -0.9998 -8.5334 0.0000 -0.0000 0.0000 -29.6517 27.3314 -48.6838 -30.1628 41.0326 -11.5164 0.0000 -0.0000 -18.7067 -23.5647 -30.3108 12.4142 7.1250 -0.0000 -0.0000 9.3792 -62.2692 -3.9563
9.1122 22.6963 8.0331 -160.4340 20.7408 157.0920 0.0000 0.0000 0.0000 6.2429 20.0254 -12.5088 5.5677 13.9959 43.2212 -0.9904 17.9567 -11.9750 4.1739 12.3883 37.1200 0.0000 0.0000 0.0000 -30.1943 -17.1174 -59.0277 -12.9347 -18.7585 68.9226 -2.2010 -8.0796 -31.8424 -0.1192 2.2254 -6.1291 3.7454 -12.0642 8.9142 7.0083 -14.6182 7.6209 6.0683 -6.7343 4.1392 -4.1646 -9.5498 1.0071 -3.6800 -11.9451 12.6597 -0.8816 -6.0565 3.9989 0.0000 0.0000 0.0000 23.7306 -66.7297 -54.2728 12.2484 -20.1761 -2.1872 -0.0000 0.0000 -4.3823 43.9356 -23.5708 -21.0714 -7.1250 0.0000 -0.0000 8.7887 -0.9065 -9.0330 0.0000 0.0000 0.0000 -29.2821 30.4040 -49.7981 -29.7939 40.7161 -11.2749 0.0000 -0.0000 -19.5293 -24.6788 -31.0916 13.3488 7.1250 -0.0000 -0.0000 8.5688 -63.3527 -3.8299
9.0407 22.8663 8.2571 -160.6230 24.3236 156.8800 0.0000 0.0000 0.0000 7.4041 19.7459 -14.6583 5.7010 14.1322 43.7696 -0.5685 16.0023 -15.5826 4.8721 13.2383 40.2672 0.0000 0.0000 0.0000 -28.6316 -16.4925 -58.3793 -12.6604 -18.6561 68.0675 -1.9985 -9.2073 -31.3220 -0.3006 3.5250 -9.7441 3.9221 -11.8936 9.8460 7.0177 -14.2467 8.3266 6.1023 -6.5050 4.3346 -4.0011 -9.2598 0.8137 -4.3542 -11.3344 14.3028 -1.1852 -5.7611 4.5782 0.0000 -0.0000 0.0000 23.3190 -65.6718 -54.4915 11.6247 -19.2394 -1.9769 -0.0000 0.0000 -2.7772 44.8499 -22.9746 -21.2204 -7.1250 0.0000 -0.0000 9.4597 -0.5302 -9.6793 0.0000 -0.0000 0.0000 -28.6277 33.6621 -50.9311 -29.2121 40.2084 -10.8974 0.0000 -0.0000 -20.2561 -25.0087 -31.9583 13.8698 7.1250 -0.0000 -0.0000 8.7605 -64.3195 -4.1141
8.9747 23.0233 8.4825 -160.3940 27.9391 156.7770 0.0000 0.0000 0.0000 9.3070 19.1313 -16.7994 5.7536 14.1852 43.9845 -0.4040 15.7009 -17.5351 4.1060 12.3001 36.8019 0.0000 0.0000 0.0000 -26.7026 -15.7353 -57.2960 -12.3986 -18.5541 67.2468 -2.0270 -9.2906 -31.5499 -0.2444 3.1815 -8.7844 5.1266 -11.1862 10.3728 6.5267 -13.1312 9.5949 4.9362 -5.7962 4.9311 -2.4374 -9.4384 -0.3745 -4.7733 -11.4517 16.3037 -1.5369 -5.7832 4.8330 -0.0000 -0.0000 0.0000 27.1437 -65.6708 -57.3501 11.2537 -18.6761 -1.8564 -0.0000 0.0000 -2.0805 46.1923 -23.2529 -22.3708 -7.1250 0.0000 -0.0000 10.1625 -1.4093 -10.5756 -0.0000 -0.0000 0.0000 -26.4184 34.9281 -51.3935 -28.5155 39.5865 -10.4506 0.0000 -0.0000 -21.1423 -25.0773 -32.5679 14.1385 7.1250 -0.0000 -0.0000 9.1175 -64.9533 -4.4173
8.9075 23.1670 8.7144 -160.3120 31.2669 156.7430 0.0000 0.0000 0.0000 11.1308 18.0221 -19.0045 5.6673 14.0980 43.6315 -0.1300 13.8971 -18.1696 3.9616 12.1091 36.1192 0.0000 0.0000 0.0000 -24.9507 -15.2570 -56.1484 -12.2074 -18.4770 66.6448 -2.1893 -8.9517 -32.3045 -0.1180 2.2144 -6.0985 5.5339 -10.9273 11.2687 6.4252 -12.6150 10.2639 4.7051 -5.4700 5.0444 -2.7407 -9.1381 -0.0218 -4.8521 -10.9202 17.3139 -1.5075 -5.5214 5.1081 -0.0000 0.0000 0.0000 26.6450 -64.6386 -56.4137 11.0091 -18.3022 -1.7788 -0.0000 0.0000 -1.3986 48.6117 -23.5644 -24.4013 -7.1250 0.0000 -0.0000 11.4536 -2.8450 -12.2505 -0.0000 0.0000 0.0000 -25.5232 37.4760 -51.3342 -27.5794 38.7261 -9.8594 0.0000 -0.0000 -22.4748 -25.5515 -33.2316 14.6815 7.1250 -0.0000 -0.0000 9.0327 -65.7554 -4.5435
8.8417 23.2986 8.9496 -160.8190 34.1899 156.4470 0.0000 0.0000 0.0000 12.4981 16.3967 -21.0669 5.4656 13.8897 42.7974 0.3912 10.4999 -19.8935 5.1798 13.5835 41.5940 0.0000 0.0000 0.0000 -23.6076 -15.3236 -55.1349 -12.0949 -18.4305 66.2894 -2.1517 -10.0715 -32.8031 -0.1913 2.8168 -7.7692 5.2981 -10.6353 12.1475 6.1322 -12.1505 10.8541 4.5901 -5.2285 5.1812 -2.7639 -8.8255 -0.3411 -5.2754 -10.2864 18.7979 -1.6666 -5.2245 5.6100 -0.0000 0.0000 0.0000 26.4278 -63.5093 -56.2349 10.9621 -18.2301 -1.7640 -0.0000 0.0000 -1.8576 49.2814 -23.6355 -24.9762 -7.1250 0.0000 -0.0000 11.8102 -3.2436 -12.7267 -0.0000 0.0000 0.0000 -24.6788 40.0854 -51.2000 -26.4435 37.6433 -9.1572 0.0000 -0.0000 -23.9064 -26.1995 -33.8966 15.3451 7.1250 -0.0000 -0.0000 8.7406 -66.6117 -4.5676
8.7770 23.4178 9.1834 -161.8210 36.9187 155.8130 0.0000 0.0000 0.0000 13.5704 14.8543 -23.1275 5.1406 13.5404 41.4266 0.1974 11.7281 -19.1573 3.7491 11.8189 35.0943 0.0000 0.0000 0.0000 -22.6068 -15.7001 -54.1016 -12.0178 -18.3982 66.0454 -2.0371 -11.4787 -33.1027 -0.4743 4.4168 -12.2523 4.7063 -10.2082 13.0524 5.6121 -11.5759 11.3312 4.4098 -4.9713 5.1917 -2.3822 -8.5880 -0.0898 -5.7855 -9.7969 19.8233 -1.8769 -4.9714 5.8465 -0.0000 0.0000 0.0000 26.3192 -62.7613 -57.3481 10.7053 -17.8352 -1.6846 -0.0000 0.0000 -1.4076 50.7171 -25.6120 -27.8546 -7.1250 0.0000 -0.0000 12.0607 -6.4260 -13.6247 -0.0000 0.0000 0.0000 -23.3484 42.6238 -50.6489 -25.3022 36.5112 -8.4690 0.0000 -0.0000 -25.3338 -26.4846 -34.4199 15.7291 7.1250 -0.0000 -0.0000 8.8084 -67.2213 -4.7260
8.7175 23.5206 9.4168 -163.1590 39.3719 154.9480 0.0000 0.0000 0.0000 14.5271 13.3502 -25.3205 4.8135 13.1707 40.0107 0.1217 11.7630 -18.3088 2.6522 10.1095 29.3321 0.0000 0.0000 0.0000 -22.1192 -16.2353 -52.8629 -11.9398 -18.3651 65.7979 -2.0833 -11.7316 -33.5493 -0.5023 4.5433 -12.6104 3.8068 -9.7140 13.8769 5.0347 -10.9710 11.7554 4.3084 -4.7243 5.2331 -1.8196 -8.3933 0.2451 -6.4158 -9.3841 20.4840 -2.1427 -4.7543 5.9394 -0.0000 0.0000 0.0000 26.1013 -62.1146 -58.5192 10.5359 -17.5735 -1.6330 -0.0000 0.0000 -0.4180 52.1486 -26.3847 -29.7632 -7.1250 0.0000 -0.0000 12.6148 -8.1446 -14.6090 -0.0000 0.0000 0.0000 -22.0045 45.1560 -50.2571 -24.0562 35.2236 -7.7389 0.0000 -0.0000 -26.2400 -25.9295 -34.9923 15.5798 7.1250 -0.0000 -0.0000 10.0358 -67.6248 -5.4819
8.6749 23.6045 9.6488 -164.4290 41.7186 154.0540 0.0000 0.0000 0.0000 15.8426 12.2634 -27.7168 4.4728 12.7644 38.4927 0.4609 9.5921 -19.6982 4.4382 12.7217 38.3355 0.0000 0.0000 0.0000 -21.7302 -16.6585 -51.3978 -11.8504 -18.3267 65.5138 -2.3355 -10.9689 -34.4417 -0.2540 3.2428 -8.9556 2.7890 -9.2001 14.5192 4.5080 -10.3638 12.2949 4.2867 -4.4750 5.5331 -1.8004 -8.1322 0.3111 -6.4904 -8.9451 21.1167 -2.1664 -4.5359 6.1347 -0.0000 0.0000 0.0000 26.3568 -61.2725 -60.2344 10.3552 -17.2932 -1.5789 -0.0000 -0.0000 0.7318 52.9422 -25.9855 -30.1231 -7.1250 0.0000 -0.0000 13.1595 -8.0861 -15.2603 -0.0000 0.0000 0.0000 -20.9828 47.7395 -50.5266 -22.6185 33.6690 -6.9256 0.0000 -0.0000 -26.4289 -24.7343 -35.3921 14.9390 7.1250 -0.0000 -0.0000 11.9560 -67.6571 -6.5506
8.6409 23.6687 9.8731 -164.9400 44.4873 153.4540 0.0000 0.0000 0.0000 18.2763 11.8732 -29.9532 4.1026 12.2957 36.7862 0.5984 8.6689 -20.2490 4.8835 13.2514 40.3169 0.0000 0.0000 0.0000 -20.5732 -16.7070 -49.6270 -11.7298 -18.2741 65.1297 -2.6372 -9.7765 -35.3260 -0.0387 1.2701 -3.4924 2.3478 -8.7026 15.4145 4.2042 -9.6581 12.8551 4.2224 -4.1233 5.6615 -2.2893 -7.7772 0.2593 -6.1271 -8.4164 21.8088 -1.9758 -4.2851 6.4228 -0.0000 0.0000 0.0000 26.7218 -60.2788 -62.1648 10.0364 -16.7965 -1.4855 -0.0000 -0.0000 1.5827 53.9651 -25.8563 -30.9424 -7.1250 0.0000 -0.0000 13.7475 -8.5083 -16.0659 -0.0000 0.0000 0.0000 -20.1547 50.5317 -51.2701 -21.1239 31.9727 -6.1154 0.0000 -0.0000 -26.2291 -23.3576 -35.6257 14.1200 7.1250 -0.0000 -0.0000 13.9340 -67.4686 -7.5902
8.6020 23.7119 10.0872 -164.6980 47.5647 153.3120 0.0000 0.0000 0.0000 21.5450 11.9308 -32.1086 3.7104 11.7647 34.9045 0.7479 7.6079 -20.8211 4.3458 12.6069 37.9142 0.0000 0.0000 0.0000 -18.7136 -16.7251 -47.7439 -11.6238 -18.2271 64.7914 -2.6593 -9.6474 -35.3664 -0.0169 0.8400 -2.3087 2.7462 -8.3347 16.4894 3.9552 -8.9945 13.3550 3.7904 -3.7194 5.5105 -2.5662 -7.4031 0.1934 -6.0101 -7.8498 22.3227 -1.8848 -4.0225 6.6313 0.0000 -0.0000 0.0000 26.9460 -59.0879 -63.8605 9.6652 -16.2141 -1.3800 -0.0000 -0.0000 2.2356 55.6502 -26.3873 -33.0362 -7.1250 0.0000 -0.0000 14.4869 -10.1962 -17.3347 0.0000 -0.0000 0.0000 -19.4697 53.6390 -52.6018 -19.5719 30.1231 -5.3148 0.0000 -0.0000 -25.8678 -22.1748 -36.1903 13.5316 7.1250 -0.0000 -0.0000 16.0049 -67.6519 -8.8067
8.5609 23.7415 10.2949 -164.7050 50.4535 153.1540 0.0000 0.0000 0.0000 24.2144 12.6286 -34.7152 3.3364 11.2207 33.0279 0.8780 7.9644 -22.3075 4.5001 12.7977 38.6158 0.0000 0.0000 0.0000 -17.1499 -17.0589 -46.0933 -11.5934 -18.2135 64.6942 -2.4485 -10.4571 -34.7293 -0.0908 1.9437 -5.3501 3.1912 -7.9308 17.1894 3.5094 -8.3228 13.8734 3.0605 -3.3033 5.5536 -2.4507 -7.1607 0.2079 -6.0082 -7.5124 22.5054 -1.8899 -3.8537 6.6880 0.0000 0.0000 0.0000 27.7590 -58.0101 -66.4932 9.2577 -15.5702 -1.2684 -0.0000 -0.0000 3.4364 57.0385 -26.8452 -34.8533 -7.1250 0.0000 -0.0000 15.0799 -11.6663 -18.3957 0.0000 0.0000 0.0000 -18.7190 56.4041 -54.0298 -18.1369 28.3321 -4.6140 0.0000 -0.0000 -25.8956 -21.6327 -37.2473 13.4978 7.1250 -0.0000 -0.0000 17.8942 -68.4789 -10.2050
